<?xml version="1.0" standalone="no"?>
<!DOCTYPE svg PUBLIC "-//W3C//DTD SVG 20010904//EN"
 "http://www.w3.org/TR/2001/REC-SVG-20010904/DTD/svg10.dtd">
<svg version="1.0" xmlns="http://www.w3.org/2000/svg"
 width="500.000000pt" height="500.000000pt" viewBox="0 0 500.000000 500.000000"
 preserveAspectRatio="xMidYMid meet">

<g transform="translate(0.000000,500.000000) scale(0.100000,-0.100000)"
fill="#CDD1DE" stroke="none">
<path d="M2220 4331 c-153 -24 -262 -53 -397 -107 -605 -241 -1029 -759 -1149
-1403 -25 -134 -30 -431 -10 -571 77 -530 359 -986 791 -1279 219 -148 423
-234 695 -293 93 -19 134 -22 350 -22 216 0 257 3 350 22 272 59 475 145 695
293 410 278 686 706 782 1213 25 129 25 503 0 632 -125 662 -554 1179 -1179
1420 -267 104 -629 140 -928 95z m248 -608 c2 -9 -9 -13 -37 -13 -75 0 -107
-65 -56 -116 22 -22 31 -25 67 -19 31 6 39 4 36 -6 -3 -8 -19 -18 -36 -23 -95
-27 -163 95 -92 165 25 26 36 30 72 27 23 -2 43 -9 46 -15z m359 -15 c-2 -7
-11 -12 -20 -10 -27 5 -31 -20 -6 -39 l24 -19 -26 0 c-25 0 -27 -4 -34 -55 -4
-37 -11 -55 -21 -55 -11 0 -12 12 -7 60 4 42 2 60 -6 60 -6 0 -11 5 -11 10 0
6 6 10 13 10 8 0 19 11 25 25 9 19 19 25 43 25 20 0 29 -4 26 -12z m-581 -23
c13 -19 14 -31 7 -48 -8 -17 -5 -30 13 -59 14 -22 20 -40 14 -43 -14 -9 -30 3
-41 32 -8 21 -14 24 -46 21 -38 -3 -38 -4 -35 -42 6 -64 -21 -38 -35 35 -7 35
-15 74 -18 87 -7 27 19 40 82 41 35 1 46 -4 59 -24z m724 -12 c0 -10 -6 -12
-19 -8 -26 8 -39 -15 -18 -30 22 -16 21 -25 -3 -25 -14 0 -22 -11 -30 -42 -16
-63 -18 -68 -30 -68 -13 0 -13 25 1 75 8 29 8 40 0 43 -13 4 -15 32 -1 32 5 0
20 11 33 24 27 27 67 26 67 -1z m-321 -9 c12 -15 21 -38 21 -51 0 -32 -42 -73
-75 -73 -33 0 -75 41 -75 73 0 40 36 77 75 77 24 0 39 -7 54 -26z m-625 -25
c28 -22 45 -70 38 -106 -2 -12 -16 -34 -29 -48 l-26 -25 30 0 c17 0 36 7 43
15 16 19 30 19 30 0 0 -23 -40 -42 -98 -47 -50 -5 -74 3 -52 17 7 4 -3 14 -22
23 -47 24 -73 81 -58 127 20 61 94 84 144 44z m1070 -61 c18 -25 21 -64 7 -72
-5 -3 -28 1 -51 9 -24 8 -46 13 -49 10 -12 -13 18 -40 48 -43 38 -4 37 -25 0
-30 -36 -4 -79 33 -79 67 0 69 88 111 124 59z m-570 -344 c3 -9 6 -266 6 -571
l0 -556 549 5 c301 3 554 3 561 -2 6 -4 10 -16 8 -26 -3 -18 -27 -19 -603 -25
-330 -3 -844 -7 -1143 -8 -484 -1 -543 1 -549 15 -3 8 -2 19 3 24 5 5 258 12
562 16 l552 7 0 553 c0 304 3 559 6 568 3 9 14 16 24 16 10 0 21 -7 24 -16z
m-659 -109 c0 -103 -1 -110 -20 -110 -19 0 -20 8 -23 113 -3 113 -3 113 20
110 22 -3 23 -6 23 -113z m-155 -32 c0 -82 -1 -84 -22 -81 -21 3 -23 9 -26 76
-3 76 7 105 34 95 11 -4 14 -26 14 -90z m320 6 c0 -70 -7 -89 -31 -89 -17 0
-19 8 -19 84 0 58 4 86 13 89 22 8 37 -26 37 -84z m885 -19 c-3 -5 -40 -10
-81 -10 l-74 0 0 -80 c0 -64 -3 -80 -15 -80 -12 0 -15 17 -15 90 l0 90 96 0
c61 0 93 -4 89 -10z m705 -80 c0 -73 -3 -90 -15 -90 -12 0 -15 16 -15 80 l0
80 -74 0 c-41 0 -78 5 -81 10 -4 6 28 10 89 10 l96 0 0 -90z m-1392 -134 c1
-60 -2 -133 -8 -163 -14 -66 -79 -166 -138 -210 l-44 -33 62 0 c64 0 113 -18
124 -45 10 -27 6 -69 -8 -87 -26 -34 -64 -38 -387 -38 -269 0 -325 2 -350 15
-55 29 -61 97 -12 135 21 16 41 20 110 20 l85 0 -43 33 c-23 17 -58 56 -78 85
-29 43 -40 52 -64 52 -101 0 -204 126 -195 237 l3 38 93 3 92 3 0 28 c0 15 3
31 7 34 4 4 173 6 377 5 l371 -3 3 -109z m892 -21 l0 -135 -135 0 -135 0 0
135 0 135 135 0 135 0 0 -135z m70 120 c0 -8 -7 -15 -15 -15 -8 0 -15 7 -15
15 0 8 7 15 15 15 8 0 15 -7 15 -15z m310 -120 l0 -135 -135 0 -135 0 0 135 0
135 135 0 135 0 0 -135z m-310 -25 c0 -91 -3 -110 -15 -110 -12 0 -15 19 -15
110 0 91 3 110 15 110 12 0 15 -19 15 -110z m-318 -165 c0 -5 -5 -11 -11 -13
-6 -2 -11 4 -11 13 0 9 5 15 11 13 6 -2 11 -8 11 -13z m246 -2 c3 -10 -23 -13
-107 -13 -102 0 -123 5 -104 24 13 12 206 2 211 -11z m72 -4 c0 -5 -7 -9 -15
-9 -15 0 -20 12 -9 23 8 8 24 -1 24 -14z m258 4 c3 -10 -23 -13 -107 -13 -102
0 -123 5 -104 24 13 12 206 2 211 -11z m52 2 c0 -8 -4 -15 -9 -15 -13 0 -22
16 -14 24 11 11 23 6 23 -9z m-392 -63 c9 -7 12 -41 10 -138 l-3 -129 -132 -3
-133 -3 0 134 c0 74 3 137 7 140 9 10 235 8 251 -1z m247 -12 c0 -8 -10 -16
-21 -18 -12 -2 -24 -12 -27 -23 -8 -31 -27 -22 -27 14 0 19 3 37 7 41 13 13
68 2 68 -14z m100 0 c0 -18 -52 -27 -67 -12 -17 17 2 33 35 30 20 -2 32 -8 32
-18z m-267 -97 c-2 -64 -7 -108 -13 -108 -6 0 -11 44 -13 108 -2 92 0 107 13
107 13 0 15 -15 13 -107z m72 71 c0 -45 -24 -42 -28 4 -2 24 1 32 12 32 12 0
16 -10 16 -36z m240 -100 c0 -104 -3 -135 -12 -132 -9 3 -14 42 -16 136 -2
113 0 132 13 132 13 0 15 -21 15 -136z m-140 81 c0 -8 -7 -15 -15 -15 -8 0
-15 7 -15 15 0 8 7 15 15 15 8 0 15 -7 15 -15z m58 3 c-7 -20 -48 -23 -48 -4
0 11 9 16 26 16 16 0 24 -5 22 -12z m40 0 c-6 -18 -28 -21 -28 -4 0 9 7 16 16
16 9 0 14 -5 12 -12z m-198 -44 c0 -9 -5 -14 -12 -12 -18 6 -21 28 -4 28 9 0
16 -7 16 -16z m40 1 c0 -8 -4 -15 -9 -15 -13 0 -22 16 -14 24 11 11 23 6 23
-9z m71 0 c0 -5 -7 -12 -16 -13 -23 -5 -47 6 -40 19 8 13 56 8 56 -6z m89 -20
c0 -33 -2 -35 -35 -35 -33 0 -35 2 -35 35 0 33 2 35 35 35 33 0 35 -2 35 -35z
m-200 -41 c0 -15 -6 -24 -15 -24 -15 0 -21 40 -9 53 12 11 24 -3 24 -29z m40
5 c0 -20 -4 -29 -12 -27 -7 3 -12 14 -11 26 1 31 2 32 13 32 6 0 10 -14 10
-31z m76 -2 c3 -26 0 -28 -29 -25 -30 3 -36 14 -28 54 1 3 13 4 27 2 21 -2 28
-9 30 -31z m37 -26 c-2 -6 4 -11 12 -11 9 0 12 6 9 15 -4 9 0 15 9 15 10 0 14
-10 13 -32 -1 -28 -6 -33 -30 -36 -16 -2 -32 0 -36 5 -12 12 0 65 14 60 6 -3
10 -10 9 -16z m-113 -26 c7 -9 10 -25 6 -40 -6 -22 -11 -26 -39 -23 -27 3 -33
8 -35 32 -5 43 41 64 68 31z m-540 -70 l0 -74 75 -3 c108 -4 99 -22 -12 -26
l-93 -3 0 91 c0 73 3 90 15 90 12 0 15 -15 15 -75z m588 64 c-2 -6 -8 -10 -13
-10 -5 0 -11 4 -13 10 -2 6 4 11 13 11 9 0 15 -5 13 -11z m272 -79 l0 -91 -92
3 c-112 4 -121 22 -13 26 l75 3 0 74 c0 60 3 75 15 75 12 0 15 -17 15 -90z
m-432 39 c-2 -6 -8 -10 -13 -10 -5 0 -11 4 -13 10 -2 6 4 11 13 11 9 0 15 -5
13 -11z m162 -5 c0 -9 -5 -14 -12 -12 -18 6 -21 28 -4 28 9 0 16 -7 16 -16z
m108 4 c-3 -7 -21 -14 -41 -16 -28 -2 -37 1 -37 12 0 12 11 16 41 16 28 0 39
-4 37 -12z m-1838 -533 c31 -16 55 -70 44 -101 -10 -28 -45 -64 -63 -64 -13
-1 -13 -2 2 -11 10 -6 31 -7 47 -4 32 7 39 -5 15 -25 -9 -8 -27 -10 -47 -6
-18 4 -44 8 -57 9 -24 2 -43 27 -21 27 7 0 0 14 -14 31 -38 45 -36 99 5 133
35 30 49 32 89 11z m394 5 c38 -14 32 -30 -12 -30 -46 0 -62 -14 -62 -56 0
-40 20 -57 62 -52 24 2 33 -1 33 -12 0 -9 -11 -16 -29 -18 -49 -6 -76 7 -93
43 -23 49 -9 94 37 117 41 21 33 20 64 8z m214 -26 c47 -53 12 -144 -57 -144
-43 0 -60 9 -76 41 -19 36 -19 69 1 97 33 48 92 50 132 6z m661 10 c25 -20 31
-34 31 -64 0 -41 -31 -90 -58 -90 -15 -1 -15 -2 1 -11 10 -6 31 -7 47 -4 38 8
40 -11 4 -27 -19 -9 -33 -9 -55 -1 -16 6 -38 9 -50 6 -19 -5 -21 -3 -16 19 5
17 2 30 -9 39 -44 36 -35 117 14 144 39 20 56 18 91 -11z m740 -61 c17 -40 31
-77 31 -82 0 -19 -28 -12 -35 9 -5 15 -15 20 -40 20 -24 0 -38 -6 -45 -20 -12
-22 -30 -27 -30 -7 0 13 49 132 64 155 12 19 21 7 55 -75z m-2511 5 l3 -67 37
-3 c56 -5 40 -23 -20 -23 l-53 0 -3 83 c-3 76 -1 83 15 80 15 -3 19 -15 21
-70z m240 60 c-3 -7 -21 -14 -41 -16 -29 -3 -37 -7 -37 -23 0 -15 7 -19 36
-19 45 0 42 -24 -4 -28 -24 -2 -32 -8 -32 -22 0 -14 9 -20 37 -22 20 -2 38 -9
41 -16 3 -10 -10 -12 -54 -10 l-59 3 -3 69 c-2 38 -1 75 2 83 7 18 120 19 114
1z m480 0 c14 -14 16 -64 3 -73 -6 -3 -4 -17 5 -33 19 -36 18 -54 -3 -50 -9 2
-20 14 -23 28 -4 19 -13 26 -38 28 -30 3 -32 1 -32 -27 0 -21 -5 -31 -15 -31
-12 0 -15 16 -15 85 l0 85 53 0 c29 0 58 -5 65 -12z m592 -8 c30 -30 27 -99
-4 -129 -19 -18 -33 -22 -72 -19 l-49 3 -3 83 -3 82 56 0 c42 0 60 -5 75 -20z
m188 8 c-3 -7 -21 -14 -41 -16 -28 -2 -37 -8 -37 -22 0 -14 8 -20 33 -22 17
-2 32 -7 32 -13 0 -5 -15 -11 -32 -13 -25 -2 -33 -8 -33 -22 0 -14 9 -20 38
-22 56 -5 40 -23 -20 -23 l-53 0 -3 83 -3 82 61 0 c45 0 61 -3 58 -12z m392
-47 c0 -64 15 -87 49 -76 17 5 21 16 23 67 2 38 8 63 16 66 9 3 12 -14 12 -64
0 -79 -16 -104 -65 -104 -43 0 -67 29 -73 89 -5 58 1 81 23 81 12 0 15 -13 15
-59z m195 -26 c0 -64 -3 -80 -15 -80 -12 0 -16 17 -18 83 -3 76 -1 83 15 80
16 -3 18 -14 18 -83z m263 73 c-3 -7 -21 -14 -41 -16 -29 -3 -37 -7 -37 -23 0
-15 7 -19 35 -19 24 0 35 -5 35 -15 0 -10 -11 -15 -35 -15 -33 0 -35 -2 -35
-35 0 -24 -5 -35 -15 -35 -12 0 -15 16 -15 85 l0 85 56 0 c40 0 55 -4 52 -12z
m270 -70 c-2 -66 -6 -83 -18 -83 -12 0 -16 16 -18 69 -3 79 1 96 23 96 13 0
15 -13 13 -82z m190 70 c-3 -7 -17 -14 -31 -16 -26 -3 -27 -5 -27 -73 0 -55
-3 -69 -15 -69 -12 0 -15 14 -15 70 0 68 -1 70 -25 70 -16 0 -25 6 -25 15 0
12 15 15 71 15 52 0 70 -3 67 -12z m-2180 -290 c19 -19 14 -24 -23 -24 -19 0
-35 3 -35 6 0 10 23 30 35 30 6 0 16 -5 23 -12z m1617 3 c6 -11 -33 -36 -42
-27 -7 7 16 36 28 36 4 0 10 -4 14 -9z m-509 -41 c8 0 14 -7 14 -15 0 -11 -11
-15 -40 -15 -29 0 -42 -5 -50 -19 -26 -49 2 -94 54 -89 22 2 31 -1 31 -12 0
-23 -72 -26 -97 -3 -50 45 -42 119 15 147 18 8 38 13 45 11 8 -3 20 -5 28 -5z
m173 -77 c17 -40 31 -77 31 -82 0 -19 -28 -12 -35 9 -5 15 -15 20 -40 20 -24
0 -38 -6 -45 -20 -12 -22 -30 -27 -30 -7 0 13 49 132 64 155 12 19 21 7 55
-75z m-1534 37 c14 -22 27 -40 29 -40 2 0 15 18 30 40 43 66 57 55 54 -42 -2
-66 -6 -83 -18 -83 -11 0 -16 14 -20 49 -5 49 -5 49 -19 23 -19 -36 -37 -34
-61 6 l-20 32 0 -57 c0 -45 -3 -58 -15 -58 -12 0 -15 16 -15 85 0 99 14 110
55 45z m283 28 c-3 -7 -21 -14 -41 -16 -29 -3 -37 -7 -37 -23 0 -15 7 -19 36
-19 45 0 42 -24 -4 -28 -24 -2 -32 -8 -32 -23 0 -16 7 -19 40 -19 29 0 40 -4
40 -15 0 -12 -13 -15 -55 -15 l-55 0 0 85 0 85 56 0 c40 0 55 -4 52 -12z m108
-28 c15 -22 28 -40 30 -40 2 0 16 18 30 40 42 64 54 54 54 -45 0 -69 -3 -85
-15 -85 -11 0 -15 13 -15 53 l-1 52 -28 -34 -28 -34 -27 39 -26 39 0 -59 c0
-42 -3 -57 -12 -54 -9 3 -14 32 -16 86 -3 97 11 108 54 42z m284 25 c0 -11
-11 -15 -41 -15 -33 0 -40 -3 -37 -17 2 -12 14 -19 36 -21 46 -5 43 -32 -3
-32 -28 0 -35 -4 -35 -19 0 -16 8 -20 40 -23 59 -4 49 -23 -15 -26 l-55 -3 0
86 0 85 55 0 c42 0 55 -3 55 -15z m180 -55 l0 -70 40 0 c29 0 40 -4 40 -15 0
-12 -13 -15 -55 -15 l-55 0 0 85 c0 69 3 85 15 85 12 0 15 -14 15 -70z m248
58 c-3 -7 -21 -14 -41 -16 -28 -2 -37 -8 -37 -22 0 -14 8 -20 33 -22 17 -2 32
-7 32 -13 0 -5 -15 -11 -32 -13 -25 -2 -33 -8 -33 -22 0 -14 9 -20 38 -22 56
-5 40 -23 -20 -23 l-53 0 -3 83 -3 82 61 0 c45 0 61 -3 58 -12z m620 0 c-3 -7
-21 -14 -41 -16 -28 -2 -37 -8 -37 -22 0 -14 8 -20 33 -22 41 -4 42 -22 0 -26
-28 -3 -32 -7 -35 -35 -2 -20 -8 -32 -18 -32 -12 0 -16 16 -18 69 -2 38 -1 75
2 83 7 18 120 19 114 1z m160 0 c-3 -7 -21 -14 -41 -16 -29 -3 -37 -7 -37 -23
0 -15 7 -19 36 -19 45 0 42 -24 -4 -28 -24 -2 -32 -8 -32 -23 0 -16 7 -19 40
-19 29 0 40 -4 40 -15 0 -12 -13 -15 -55 -15 l-55 0 0 85 0 85 56 0 c40 0 55
-4 52 -12z m182 -25 c0 -21 -3 -48 -6 -60 -11 -39 -24 -14 -24 43 0 41 4 54
15 54 11 0 15 -11 15 -37z m0 -119 c0 -8 -7 -14 -15 -14 -15 0 -21 21 -9 33
10 9 24 -2 24 -19z"/>
<path d="M2168 3683 c-21 -3 -28 -10 -28 -26 0 -37 13 -48 48 -41 17 3 33 13
36 21 6 16 -10 54 -22 52 -4 -1 -19 -4 -34 -6z"/>
<path d="M2567 3652 c-32 -35 -15 -82 28 -82 43 0 61 53 29 84 -20 21 -37 20
-57 -2z"/>
<path d="M1927 3612 c-23 -25 -21 -78 3 -102 41 -41 100 -13 100 48 0 60 -67
94 -103 54z"/>
<path d="M3021 3567 c-8 -11 -3 -16 24 -24 28 -9 35 -8 35 3 0 7 -9 18 -19 24
-25 13 -26 13 -40 -3z"/>
<path d="M1520 2830 c0 -117 20 -183 77 -249 165 -193 474 -142 562 93 16 44
21 79 21 156 l0 100 -330 0 -330 0 0 -100z"/>
<path d="M1330 2837 c0 -63 81 -157 136 -157 21 0 22 3 13 32 -5 18 -9 59 -9
90 l0 58 -70 0 c-66 0 -70 -1 -70 -23z"/>
<path d="M1485 2390 c-16 -49 -7 -50 354 -48 l336 3 0 30 0 30 -342 3 c-337 2
-342 2 -348 -18z"/>
<path d="M2880 2845 l0 -105 105 0 105 0 0 105 0 105 -105 0 -105 0 0 -105z
m155 0 l0 -50 -52 -3 -53 -3 0 56 0 56 53 -3 52 -3 0 -50z"/>
<path d="M3260 2845 l0 -105 105 0 105 0 0 105 0 105 -105 0 -105 0 0 -105z
m160 -1 l0 -55 -52 3 -53 3 -3 39 c-5 59 1 66 58 66 l50 0 0 -56z"/>
<path d="M2880 2455 l0 -105 105 0 105 0 0 105 0 105 -105 0 -105 0 0 -105z
m155 0 l0 -50 -50 0 -50 0 -3 53 -3 53 53 -3 53 -3 0 -50z"/>
<path d="M1540 1761 c-15 -30 -12 -56 10 -76 44 -40 98 13 71 71 -14 31 -65
34 -81 5z"/>
<path d="M2132 1768 c-17 -17 -15 -73 2 -88 23 -18 59 -8 75 21 13 24 13 29
-2 53 -19 28 -54 35 -75 14z"/>
<path d="M2802 1768 c-29 -29 -3 -98 37 -98 22 0 51 31 51 54 0 48 -56 76 -88
44z"/>
<path d="M3572 1736 c-10 -23 -9 -26 8 -26 21 0 23 4 11 33 -6 17 -8 16 -19
-7z"/>
<path d="M1750 1755 c0 -24 3 -26 33 -23 24 2 32 8 32 23 0 15 -8 21 -32 23
-30 3 -33 1 -33 -23z"/>
<path d="M2340 1724 l0 -55 32 3 c65 6 63 108 -2 108 -30 0 -30 0 -30 -56z"/>
<path d="M2972 1396 c-10 -23 -9 -26 8 -26 21 0 23 4 11 33 -6 17 -8 16 -19
-7z"/>
</g>
</svg>
